# xmcd CD database file
#
# Track frame offsets:
#	183
#	13620
#	27075
#	39093
#	51555
#	62593
#	77168
#	90705
#	105993
#	119100
#	130768
#	142428
#	155050
#	168563
#	181550
#	194608
#	207633
#	221973
#	236670
#	252048
#	266095
#	279760
#	294853
#	308078
#
# Disc length: 4293 seconds
#
# Revision: 0
# Processed by: cddbd v1.4PL0 Copyright (c) Steve Scherf et al.
# Submitted via: CDex 1.40Beta9
#
DISCID=6310c318
DTITLE=Clarence Williams - Complete Clarence Williams Sessions, Volume 2 (1923-1925)
DYEAR=1900
DGENRE=Blues
TTITLE0=House Rent Blues
TTITLE1=Mean Blues
TTITLE2=Jail House Blues
TTITLE3=Foolin' Me
TTITLE4=Ghost of the Blues
TTITLE5=Texas Moaner Blues
TTITLE6=Early in the Morning
TTITLE7=You've Got the Right Key, But the Wrong Keyhole
TTITLE8=Of All the Wrongs You Done to Me
TTITLE9=Everybody Loves My Baby
TTITLE10=Papa, Mama's All Alone Blues
TTITLE11=Changeable Daddy of Mine
TTITLE12=Baby I Can't Use You No More
TTITLE13=Trouble Everywhere I Roam
TTITLE14=I'm So Glad I'm Brownskin
TTITLE15=Off and On Blues
TTITLE16=Mandy Make Up Your Mind
TTITLE17=I'm a Little Blackbird, Looking for a Bluebird
TTITLE18=Who'll Shop Your Suey When I'm Gone?
TTITLE19=Done Made a Fool Out of Me
TTITLE20=Cake Walkin' Babies from Home
TTITLE21=Pickin' on Your Baby
TTITLE22=Cast Away
TTITLE23=Papa De-Da-Da
EXTD=ID3G: 0
EXTT0=
EXTT1=
EXTT2=
EXTT3=
EXTT4=
EXTT5=
EXTT6=
EXTT7=
EXTT8=
EXTT9=
EXTT10=
EXTT11=
EXTT12=
EXTT13=
EXTT14=
EXTT15=
EXTT16=
EXTT17=
EXTT18=
EXTT19=
EXTT20=
EXTT21=
EXTT22=
EXTT23=
PLAYORDER=
